<mxfile host="Electron" modified="2024-04-05T14:05:54.173Z" agent="Mozilla/5.0 (X11; Linux x86_64) AppleWebKit/537.36 (KHTML, like Gecko) draw.io/24.0.4 Chrome/120.0.6099.109 Electron/28.1.0 Safari/537.36" etag="lgFqPGw8GolNXI7ihhqD" version="24.0.4" type="device">
  <diagram id="C5RBs43oDa-KdzZeNtuy" name="Page-1">
    <mxGraphModel dx="899" dy="728" grid="1" gridSize="10" guides="1" tooltips="1" connect="1" arrows="1" fold="1" page="1" pageScale="1" pageWidth="827" pageHeight="1169" math="0" shadow="0">
      <root>
        <mxCell id="WIyWlLk6GJQsqaUBKTNV-0" />
        <mxCell id="WIyWlLk6GJQsqaUBKTNV-1" parent="WIyWlLk6GJQsqaUBKTNV-0" />
        <mxCell id="eBTvOQhbbWVXLsYW8WIT-38" value="Account" style="swimlane;fontStyle=1;align=center;verticalAlign=top;childLayout=stackLayout;horizontal=1;startSize=26;horizontalStack=0;resizeParent=1;resizeParentMax=0;resizeLast=0;collapsible=1;marginBottom=0;whiteSpace=wrap;html=1;" parent="WIyWlLk6GJQsqaUBKTNV-1" vertex="1" collapsed="1">
          <mxGeometry x="336.5" y="178" width="84" height="26" as="geometry">
            <mxRectangle x="19" y="403" width="160" height="60" as="alternateBounds" />
          </mxGeometry>
        </mxCell>
        <mxCell id="eBTvOQhbbWVXLsYW8WIT-39" value="+ field: type" style="text;strokeColor=none;fillColor=none;align=left;verticalAlign=top;spacingLeft=4;spacingRight=4;overflow=hidden;rotatable=0;points=[[0,0.5],[1,0.5]];portConstraint=eastwest;whiteSpace=wrap;html=1;" parent="eBTvOQhbbWVXLsYW8WIT-38" vertex="1">
          <mxGeometry y="26" width="160" height="26" as="geometry" />
        </mxCell>
        <mxCell id="eBTvOQhbbWVXLsYW8WIT-40" value="" style="line;strokeWidth=1;fillColor=none;align=left;verticalAlign=middle;spacingTop=-1;spacingLeft=3;spacingRight=3;rotatable=0;labelPosition=right;points=[];portConstraint=eastwest;strokeColor=inherit;" parent="eBTvOQhbbWVXLsYW8WIT-38" vertex="1">
          <mxGeometry y="52" width="160" height="8" as="geometry" />
        </mxCell>
        <mxCell id="eBTvOQhbbWVXLsYW8WIT-41" value="Person" style="swimlane;fontStyle=1;align=center;verticalAlign=top;childLayout=stackLayout;horizontal=1;startSize=26;horizontalStack=0;resizeParent=1;resizeParentMax=0;resizeLast=0;collapsible=1;marginBottom=0;whiteSpace=wrap;html=1;" parent="WIyWlLk6GJQsqaUBKTNV-1" vertex="1" collapsed="1">
          <mxGeometry x="342" y="284" width="73" height="26" as="geometry">
            <mxRectangle x="-30" y="523" width="160" height="112" as="alternateBounds" />
          </mxGeometry>
        </mxCell>
        <mxCell id="eBTvOQhbbWVXLsYW8WIT-42" value="Name" style="text;strokeColor=none;fillColor=none;align=left;verticalAlign=top;spacingLeft=4;spacingRight=4;overflow=hidden;rotatable=0;points=[[0,0.5],[1,0.5]];portConstraint=eastwest;whiteSpace=wrap;html=1;" parent="eBTvOQhbbWVXLsYW8WIT-41" vertex="1">
          <mxGeometry y="26" width="160" height="26" as="geometry" />
        </mxCell>
        <mxCell id="eBTvOQhbbWVXLsYW8WIT-43" value="Phone Number" style="text;strokeColor=none;fillColor=none;align=left;verticalAlign=top;spacingLeft=4;spacingRight=4;overflow=hidden;rotatable=0;points=[[0,0.5],[1,0.5]];portConstraint=eastwest;whiteSpace=wrap;html=1;" parent="eBTvOQhbbWVXLsYW8WIT-41" vertex="1">
          <mxGeometry y="52" width="160" height="26" as="geometry" />
        </mxCell>
        <mxCell id="eBTvOQhbbWVXLsYW8WIT-44" value="Email Address" style="text;strokeColor=none;fillColor=none;align=left;verticalAlign=top;spacingLeft=4;spacingRight=4;overflow=hidden;rotatable=0;points=[[0,0.5],[1,0.5]];portConstraint=eastwest;whiteSpace=wrap;html=1;" parent="eBTvOQhbbWVXLsYW8WIT-41" vertex="1">
          <mxGeometry y="78" width="160" height="26" as="geometry" />
        </mxCell>
        <mxCell id="eBTvOQhbbWVXLsYW8WIT-45" value="" style="line;strokeWidth=1;fillColor=none;align=left;verticalAlign=middle;spacingTop=-1;spacingLeft=3;spacingRight=3;rotatable=0;labelPosition=right;points=[];portConstraint=eastwest;strokeColor=inherit;" parent="eBTvOQhbbWVXLsYW8WIT-41" vertex="1">
          <mxGeometry y="104" width="160" height="8" as="geometry" />
        </mxCell>
        <mxCell id="eBTvOQhbbWVXLsYW8WIT-108" style="edgeStyle=orthogonalEdgeStyle;rounded=0;orthogonalLoop=1;jettySize=auto;html=1;exitX=0;exitY=0.5;exitDx=0;exitDy=0;entryX=1;entryY=0.5;entryDx=0;entryDy=0;" parent="WIyWlLk6GJQsqaUBKTNV-1" source="eBTvOQhbbWVXLsYW8WIT-57" target="eBTvOQhbbWVXLsYW8WIT-41" edge="1">
          <mxGeometry relative="1" as="geometry" />
        </mxCell>
        <mxCell id="eBTvOQhbbWVXLsYW8WIT-57" value="Customer" style="swimlane;fontStyle=1;align=center;verticalAlign=top;childLayout=stackLayout;horizontal=1;startSize=26;horizontalStack=0;resizeParent=1;resizeParentMax=0;resizeLast=0;collapsible=1;marginBottom=0;whiteSpace=wrap;html=1;" parent="WIyWlLk6GJQsqaUBKTNV-1" vertex="1" collapsed="1">
          <mxGeometry x="634" y="284" width="87" height="26" as="geometry">
            <mxRectangle x="76" y="726" width="160" height="86" as="alternateBounds" />
          </mxGeometry>
        </mxCell>
        <mxCell id="eBTvOQhbbWVXLsYW8WIT-58" value="+ field: type" style="text;strokeColor=none;fillColor=none;align=left;verticalAlign=top;spacingLeft=4;spacingRight=4;overflow=hidden;rotatable=0;points=[[0,0.5],[1,0.5]];portConstraint=eastwest;whiteSpace=wrap;html=1;" parent="eBTvOQhbbWVXLsYW8WIT-57" vertex="1">
          <mxGeometry y="26" width="160" height="26" as="geometry" />
        </mxCell>
        <mxCell id="eBTvOQhbbWVXLsYW8WIT-59" value="" style="line;strokeWidth=1;fillColor=none;align=left;verticalAlign=middle;spacingTop=-1;spacingLeft=3;spacingRight=3;rotatable=0;labelPosition=right;points=[];portConstraint=eastwest;strokeColor=inherit;" parent="eBTvOQhbbWVXLsYW8WIT-57" vertex="1">
          <mxGeometry y="52" width="160" height="8" as="geometry" />
        </mxCell>
        <mxCell id="eBTvOQhbbWVXLsYW8WIT-60" value="+ method(type): type" style="text;strokeColor=none;fillColor=none;align=left;verticalAlign=top;spacingLeft=4;spacingRight=4;overflow=hidden;rotatable=0;points=[[0,0.5],[1,0.5]];portConstraint=eastwest;whiteSpace=wrap;html=1;" parent="eBTvOQhbbWVXLsYW8WIT-57" vertex="1">
          <mxGeometry y="60" width="160" height="26" as="geometry" />
        </mxCell>
        <mxCell id="eBTvOQhbbWVXLsYW8WIT-68" style="edgeStyle=orthogonalEdgeStyle;rounded=0;orthogonalLoop=1;jettySize=auto;html=1;exitX=0.5;exitY=0;exitDx=0;exitDy=0;entryX=0.5;entryY=1;entryDx=0;entryDy=0;" parent="WIyWlLk6GJQsqaUBKTNV-1" source="eBTvOQhbbWVXLsYW8WIT-61" target="eBTvOQhbbWVXLsYW8WIT-41" edge="1">
          <mxGeometry relative="1" as="geometry" />
        </mxCell>
        <mxCell id="eBTvOQhbbWVXLsYW8WIT-61" value="Owner" style="swimlane;fontStyle=1;align=center;verticalAlign=top;childLayout=stackLayout;horizontal=1;startSize=26;horizontalStack=0;resizeParent=1;resizeParentMax=0;resizeLast=0;collapsible=1;marginBottom=0;whiteSpace=wrap;html=1;" parent="WIyWlLk6GJQsqaUBKTNV-1" vertex="1" collapsed="1">
          <mxGeometry x="492" y="390" width="87" height="26" as="geometry">
            <mxRectangle x="76" y="726" width="160" height="86" as="alternateBounds" />
          </mxGeometry>
        </mxCell>
        <mxCell id="eBTvOQhbbWVXLsYW8WIT-62" value="+ field: type" style="text;strokeColor=none;fillColor=none;align=left;verticalAlign=top;spacingLeft=4;spacingRight=4;overflow=hidden;rotatable=0;points=[[0,0.5],[1,0.5]];portConstraint=eastwest;whiteSpace=wrap;html=1;" parent="eBTvOQhbbWVXLsYW8WIT-61" vertex="1">
          <mxGeometry y="26" width="160" height="26" as="geometry" />
        </mxCell>
        <mxCell id="eBTvOQhbbWVXLsYW8WIT-63" value="" style="line;strokeWidth=1;fillColor=none;align=left;verticalAlign=middle;spacingTop=-1;spacingLeft=3;spacingRight=3;rotatable=0;labelPosition=right;points=[];portConstraint=eastwest;strokeColor=inherit;" parent="eBTvOQhbbWVXLsYW8WIT-61" vertex="1">
          <mxGeometry y="52" width="160" height="8" as="geometry" />
        </mxCell>
        <mxCell id="eBTvOQhbbWVXLsYW8WIT-64" value="+ method(type): type" style="text;strokeColor=none;fillColor=none;align=left;verticalAlign=top;spacingLeft=4;spacingRight=4;overflow=hidden;rotatable=0;points=[[0,0.5],[1,0.5]];portConstraint=eastwest;whiteSpace=wrap;html=1;" parent="eBTvOQhbbWVXLsYW8WIT-61" vertex="1">
          <mxGeometry y="60" width="160" height="26" as="geometry" />
        </mxCell>
        <mxCell id="eBTvOQhbbWVXLsYW8WIT-70" value="" style="endArrow=none;html=1;rounded=0;entryX=0.5;entryY=1;entryDx=0;entryDy=0;exitX=0.5;exitY=0;exitDx=0;exitDy=0;" parent="WIyWlLk6GJQsqaUBKTNV-1" source="eBTvOQhbbWVXLsYW8WIT-41" target="eBTvOQhbbWVXLsYW8WIT-38" edge="1">
          <mxGeometry relative="1" as="geometry">
            <mxPoint x="378.5" y="303.9999999999999" as="sourcePoint" />
            <mxPoint x="378.5" y="223.9999999999999" as="targetPoint" />
          </mxGeometry>
        </mxCell>
        <mxCell id="eBTvOQhbbWVXLsYW8WIT-71" value="1" style="resizable=0;html=1;whiteSpace=wrap;align=left;verticalAlign=bottom;" parent="eBTvOQhbbWVXLsYW8WIT-70" connectable="0" vertex="1">
          <mxGeometry x="-1" relative="1" as="geometry">
            <mxPoint x="-16" as="offset" />
          </mxGeometry>
        </mxCell>
        <mxCell id="eBTvOQhbbWVXLsYW8WIT-72" value="1" style="resizable=0;html=1;whiteSpace=wrap;align=right;verticalAlign=bottom;" parent="eBTvOQhbbWVXLsYW8WIT-70" connectable="0" vertex="1">
          <mxGeometry x="1" relative="1" as="geometry">
            <mxPoint x="-6" y="20" as="offset" />
          </mxGeometry>
        </mxCell>
        <mxCell id="eBTvOQhbbWVXLsYW8WIT-73" value="Store" style="swimlane;fontStyle=1;align=center;verticalAlign=top;childLayout=stackLayout;horizontal=1;startSize=26;horizontalStack=0;resizeParent=1;resizeParentMax=0;resizeLast=0;collapsible=1;marginBottom=0;whiteSpace=wrap;html=1;" parent="WIyWlLk6GJQsqaUBKTNV-1" vertex="1" collapsed="1">
          <mxGeometry x="488.5" y="534" width="94" height="26" as="geometry">
            <mxRectangle x="-168" y="231" width="160" height="60" as="alternateBounds" />
          </mxGeometry>
        </mxCell>
        <mxCell id="eBTvOQhbbWVXLsYW8WIT-74" value="Name" style="text;strokeColor=none;fillColor=none;align=left;verticalAlign=top;spacingLeft=4;spacingRight=4;overflow=hidden;rotatable=0;points=[[0,0.5],[1,0.5]];portConstraint=eastwest;whiteSpace=wrap;html=1;" parent="eBTvOQhbbWVXLsYW8WIT-73" vertex="1">
          <mxGeometry y="26" width="160" height="26" as="geometry" />
        </mxCell>
        <mxCell id="eBTvOQhbbWVXLsYW8WIT-75" value="" style="line;strokeWidth=1;fillColor=none;align=left;verticalAlign=middle;spacingTop=-1;spacingLeft=3;spacingRight=3;rotatable=0;labelPosition=right;points=[];portConstraint=eastwest;strokeColor=inherit;" parent="eBTvOQhbbWVXLsYW8WIT-73" vertex="1">
          <mxGeometry y="52" width="160" height="8" as="geometry" />
        </mxCell>
        <mxCell id="eBTvOQhbbWVXLsYW8WIT-166" style="edgeStyle=orthogonalEdgeStyle;rounded=0;orthogonalLoop=1;jettySize=auto;html=1;exitX=0.5;exitY=0;exitDx=0;exitDy=0;entryX=0;entryY=0.5;entryDx=0;entryDy=0;" parent="WIyWlLk6GJQsqaUBKTNV-1" source="eBTvOQhbbWVXLsYW8WIT-79" target="eBTvOQhbbWVXLsYW8WIT-41" edge="1">
          <mxGeometry relative="1" as="geometry" />
        </mxCell>
        <mxCell id="eBTvOQhbbWVXLsYW8WIT-79" value="Worker" style="swimlane;fontStyle=1;align=center;verticalAlign=top;childLayout=stackLayout;horizontal=1;startSize=26;horizontalStack=0;resizeParent=1;resizeParentMax=0;resizeLast=0;collapsible=1;marginBottom=0;whiteSpace=wrap;html=1;" parent="WIyWlLk6GJQsqaUBKTNV-1" vertex="1" collapsed="1">
          <mxGeometry x="82" y="534" width="73" height="26" as="geometry">
            <mxRectangle x="-190" y="726" width="160" height="60" as="alternateBounds" />
          </mxGeometry>
        </mxCell>
        <mxCell id="eBTvOQhbbWVXLsYW8WIT-80" value="Salary" style="text;strokeColor=none;fillColor=none;align=left;verticalAlign=top;spacingLeft=4;spacingRight=4;overflow=hidden;rotatable=0;points=[[0,0.5],[1,0.5]];portConstraint=eastwest;whiteSpace=wrap;html=1;" parent="eBTvOQhbbWVXLsYW8WIT-79" vertex="1">
          <mxGeometry y="26" width="160" height="26" as="geometry" />
        </mxCell>
        <mxCell id="eBTvOQhbbWVXLsYW8WIT-81" value="" style="line;strokeWidth=1;fillColor=none;align=left;verticalAlign=middle;spacingTop=-1;spacingLeft=3;spacingRight=3;rotatable=0;labelPosition=right;points=[];portConstraint=eastwest;strokeColor=inherit;" parent="eBTvOQhbbWVXLsYW8WIT-79" vertex="1">
          <mxGeometry y="52" width="160" height="8" as="geometry" />
        </mxCell>
        <mxCell id="eBTvOQhbbWVXLsYW8WIT-223" style="edgeStyle=orthogonalEdgeStyle;rounded=0;orthogonalLoop=1;jettySize=auto;html=1;entryX=0.5;entryY=1;entryDx=0;entryDy=0;exitX=0.5;exitY=0;exitDx=0;exitDy=0;" parent="WIyWlLk6GJQsqaUBKTNV-1" target="eBTvOQhbbWVXLsYW8WIT-79" edge="1" source="wCl5vX7TFLa7LNLCwY4E-12">
          <mxGeometry relative="1" as="geometry">
            <mxPoint x="112" y="574" as="targetPoint" />
            <mxPoint x="104.00000000000023" y="868" as="sourcePoint" />
            <Array as="points">
              <mxPoint x="104" y="874" />
              <mxPoint x="104" y="714" />
              <mxPoint x="119" y="714" />
            </Array>
          </mxGeometry>
        </mxCell>
        <mxCell id="eBTvOQhbbWVXLsYW8WIT-225" style="edgeStyle=orthogonalEdgeStyle;rounded=0;orthogonalLoop=1;jettySize=auto;html=1;exitX=0.5;exitY=0;exitDx=0;exitDy=0;entryX=0.5;entryY=1;entryDx=0;entryDy=0;" parent="WIyWlLk6GJQsqaUBKTNV-1" source="wCl5vX7TFLa7LNLCwY4E-8" target="eBTvOQhbbWVXLsYW8WIT-79" edge="1">
          <mxGeometry relative="1" as="geometry">
            <mxPoint x="219.00000000000023" y="874" as="sourcePoint" />
            <Array as="points">
              <mxPoint x="219" y="878" />
              <mxPoint x="219" y="714" />
              <mxPoint x="118" y="714" />
            </Array>
          </mxGeometry>
        </mxCell>
        <mxCell id="eBTvOQhbbWVXLsYW8WIT-224" style="edgeStyle=orthogonalEdgeStyle;rounded=0;orthogonalLoop=1;jettySize=auto;html=1;exitX=0.5;exitY=0;exitDx=0;exitDy=0;entryX=0.5;entryY=1;entryDx=0;entryDy=0;" parent="WIyWlLk6GJQsqaUBKTNV-1" source="eBTvOQhbbWVXLsYW8WIT-93" target="eBTvOQhbbWVXLsYW8WIT-79" edge="1">
          <mxGeometry relative="1" as="geometry">
            <mxPoint x="132" y="594" as="targetPoint" />
            <Array as="points">
              <mxPoint x="149" y="714" />
              <mxPoint x="119" y="714" />
            </Array>
          </mxGeometry>
        </mxCell>
        <mxCell id="eBTvOQhbbWVXLsYW8WIT-93" value="Cook" style="swimlane;fontStyle=1;align=center;verticalAlign=top;childLayout=stackLayout;horizontal=1;startSize=26;horizontalStack=0;resizeParent=1;resizeParentMax=0;resizeLast=0;collapsible=1;marginBottom=0;whiteSpace=wrap;html=1;" parent="WIyWlLk6GJQsqaUBKTNV-1" vertex="1" collapsed="1">
          <mxGeometry x="113.5" y="804" width="70" height="26" as="geometry">
            <mxRectangle x="360" y="1160" width="160" height="86" as="alternateBounds" />
          </mxGeometry>
        </mxCell>
        <mxCell id="eBTvOQhbbWVXLsYW8WIT-94" value="+ field: type" style="text;strokeColor=none;fillColor=none;align=left;verticalAlign=top;spacingLeft=4;spacingRight=4;overflow=hidden;rotatable=0;points=[[0,0.5],[1,0.5]];portConstraint=eastwest;whiteSpace=wrap;html=1;" parent="eBTvOQhbbWVXLsYW8WIT-93" vertex="1">
          <mxGeometry y="26" width="160" height="26" as="geometry" />
        </mxCell>
        <mxCell id="eBTvOQhbbWVXLsYW8WIT-95" value="" style="line;strokeWidth=1;fillColor=none;align=left;verticalAlign=middle;spacingTop=-1;spacingLeft=3;spacingRight=3;rotatable=0;labelPosition=right;points=[];portConstraint=eastwest;strokeColor=inherit;" parent="eBTvOQhbbWVXLsYW8WIT-93" vertex="1">
          <mxGeometry y="52" width="160" height="8" as="geometry" />
        </mxCell>
        <mxCell id="eBTvOQhbbWVXLsYW8WIT-96" value="+ method(type): type" style="text;strokeColor=none;fillColor=none;align=left;verticalAlign=top;spacingLeft=4;spacingRight=4;overflow=hidden;rotatable=0;points=[[0,0.5],[1,0.5]];portConstraint=eastwest;whiteSpace=wrap;html=1;" parent="eBTvOQhbbWVXLsYW8WIT-93" vertex="1">
          <mxGeometry y="60" width="160" height="26" as="geometry" />
        </mxCell>
        <mxCell id="eBTvOQhbbWVXLsYW8WIT-222" style="edgeStyle=orthogonalEdgeStyle;rounded=0;orthogonalLoop=1;jettySize=auto;html=1;exitX=0.5;exitY=0;exitDx=0;exitDy=0;entryX=0.5;entryY=1;entryDx=0;entryDy=0;" parent="WIyWlLk6GJQsqaUBKTNV-1" source="eBTvOQhbbWVXLsYW8WIT-97" target="eBTvOQhbbWVXLsYW8WIT-79" edge="1">
          <mxGeometry relative="1" as="geometry">
            <Array as="points">
              <mxPoint x="54" y="714" />
              <mxPoint x="119" y="714" />
            </Array>
          </mxGeometry>
        </mxCell>
        <mxCell id="eBTvOQhbbWVXLsYW8WIT-97" value="Delivery" style="swimlane;fontStyle=1;align=center;verticalAlign=top;childLayout=stackLayout;horizontal=1;startSize=26;horizontalStack=0;resizeParent=1;resizeParentMax=0;resizeLast=0;collapsible=1;marginBottom=0;whiteSpace=wrap;html=1;" parent="WIyWlLk6GJQsqaUBKTNV-1" vertex="1" collapsed="1">
          <mxGeometry x="14" y="822" width="80" height="26" as="geometry">
            <mxRectangle x="344" y="1050" width="160" height="86" as="alternateBounds" />
          </mxGeometry>
        </mxCell>
        <mxCell id="eBTvOQhbbWVXLsYW8WIT-98" value="+ field: type" style="text;strokeColor=none;fillColor=none;align=left;verticalAlign=top;spacingLeft=4;spacingRight=4;overflow=hidden;rotatable=0;points=[[0,0.5],[1,0.5]];portConstraint=eastwest;whiteSpace=wrap;html=1;" parent="eBTvOQhbbWVXLsYW8WIT-97" vertex="1">
          <mxGeometry y="26" width="160" height="26" as="geometry" />
        </mxCell>
        <mxCell id="eBTvOQhbbWVXLsYW8WIT-99" value="" style="line;strokeWidth=1;fillColor=none;align=left;verticalAlign=middle;spacingTop=-1;spacingLeft=3;spacingRight=3;rotatable=0;labelPosition=right;points=[];portConstraint=eastwest;strokeColor=inherit;" parent="eBTvOQhbbWVXLsYW8WIT-97" vertex="1">
          <mxGeometry y="52" width="160" height="8" as="geometry" />
        </mxCell>
        <mxCell id="eBTvOQhbbWVXLsYW8WIT-100" value="+ method(type): type" style="text;strokeColor=none;fillColor=none;align=left;verticalAlign=top;spacingLeft=4;spacingRight=4;overflow=hidden;rotatable=0;points=[[0,0.5],[1,0.5]];portConstraint=eastwest;whiteSpace=wrap;html=1;" parent="eBTvOQhbbWVXLsYW8WIT-97" vertex="1">
          <mxGeometry y="60" width="160" height="26" as="geometry" />
        </mxCell>
        <mxCell id="eBTvOQhbbWVXLsYW8WIT-102" value="" style="endArrow=none;html=1;rounded=0;entryX=0;entryY=0.5;entryDx=0;entryDy=0;exitX=1;exitY=0.5;exitDx=0;exitDy=0;" parent="WIyWlLk6GJQsqaUBKTNV-1" source="eBTvOQhbbWVXLsYW8WIT-79" target="eBTvOQhbbWVXLsYW8WIT-73" edge="1">
          <mxGeometry relative="1" as="geometry">
            <mxPoint x="332.5" y="587" as="sourcePoint" />
            <mxPoint x="331.5" y="507" as="targetPoint" />
          </mxGeometry>
        </mxCell>
        <mxCell id="eBTvOQhbbWVXLsYW8WIT-103" value="*" style="resizable=0;html=1;whiteSpace=wrap;align=left;verticalAlign=bottom;" parent="eBTvOQhbbWVXLsYW8WIT-102" connectable="0" vertex="1">
          <mxGeometry x="-1" relative="1" as="geometry">
            <mxPoint x="2" y="6" as="offset" />
          </mxGeometry>
        </mxCell>
        <mxCell id="eBTvOQhbbWVXLsYW8WIT-104" value="1" style="resizable=0;html=1;whiteSpace=wrap;align=right;verticalAlign=bottom;" parent="eBTvOQhbbWVXLsYW8WIT-102" connectable="0" vertex="1">
          <mxGeometry x="1" relative="1" as="geometry">
            <mxPoint y="-19" as="offset" />
          </mxGeometry>
        </mxCell>
        <mxCell id="eBTvOQhbbWVXLsYW8WIT-105" value="" style="endArrow=none;html=1;rounded=0;entryX=0.5;entryY=0;entryDx=0;entryDy=0;exitX=0.5;exitY=1;exitDx=0;exitDy=0;" parent="WIyWlLk6GJQsqaUBKTNV-1" source="eBTvOQhbbWVXLsYW8WIT-61" target="eBTvOQhbbWVXLsYW8WIT-73" edge="1">
          <mxGeometry relative="1" as="geometry">
            <mxPoint x="182" y="492.32000000000005" as="sourcePoint" />
            <mxPoint x="516" y="492.32000000000005" as="targetPoint" />
          </mxGeometry>
        </mxCell>
        <mxCell id="eBTvOQhbbWVXLsYW8WIT-106" value="1" style="resizable=0;html=1;whiteSpace=wrap;align=left;verticalAlign=bottom;" parent="eBTvOQhbbWVXLsYW8WIT-105" connectable="0" vertex="1">
          <mxGeometry x="-1" relative="1" as="geometry">
            <mxPoint x="-16" y="18" as="offset" />
          </mxGeometry>
        </mxCell>
        <mxCell id="eBTvOQhbbWVXLsYW8WIT-107" value="*" style="resizable=0;html=1;whiteSpace=wrap;align=right;verticalAlign=bottom;" parent="eBTvOQhbbWVXLsYW8WIT-105" connectable="0" vertex="1">
          <mxGeometry x="1" relative="1" as="geometry">
            <mxPoint x="-3" as="offset" />
          </mxGeometry>
        </mxCell>
        <mxCell id="eBTvOQhbbWVXLsYW8WIT-109" value="Store&amp;nbsp;&lt;span style=&quot;background-color: initial;&quot;&gt;Rating&lt;/span&gt;" style="swimlane;fontStyle=1;align=center;verticalAlign=top;childLayout=stackLayout;horizontal=1;startSize=40;horizontalStack=0;resizeParent=1;resizeParentMax=0;resizeLast=0;collapsible=1;marginBottom=0;whiteSpace=wrap;html=1;" parent="WIyWlLk6GJQsqaUBKTNV-1" vertex="1" collapsed="1">
          <mxGeometry x="654" y="533" width="94" height="27" as="geometry">
            <mxRectangle x="-168" y="231" width="160" height="60" as="alternateBounds" />
          </mxGeometry>
        </mxCell>
        <mxCell id="eBTvOQhbbWVXLsYW8WIT-110" value="Name" style="text;strokeColor=none;fillColor=none;align=left;verticalAlign=top;spacingLeft=4;spacingRight=4;overflow=hidden;rotatable=0;points=[[0,0.5],[1,0.5]];portConstraint=eastwest;whiteSpace=wrap;html=1;" parent="eBTvOQhbbWVXLsYW8WIT-109" vertex="1">
          <mxGeometry y="26" width="160" height="26" as="geometry" />
        </mxCell>
        <mxCell id="eBTvOQhbbWVXLsYW8WIT-111" value="" style="line;strokeWidth=1;fillColor=none;align=left;verticalAlign=middle;spacingTop=-1;spacingLeft=3;spacingRight=3;rotatable=0;labelPosition=right;points=[];portConstraint=eastwest;strokeColor=inherit;" parent="eBTvOQhbbWVXLsYW8WIT-109" vertex="1">
          <mxGeometry y="52" width="160" height="8" as="geometry" />
        </mxCell>
        <mxCell id="eBTvOQhbbWVXLsYW8WIT-112" value="" style="endArrow=none;html=1;rounded=0;entryX=0;entryY=0.5;entryDx=0;entryDy=0;exitX=1;exitY=0.5;exitDx=0;exitDy=0;" parent="WIyWlLk6GJQsqaUBKTNV-1" source="eBTvOQhbbWVXLsYW8WIT-73" target="eBTvOQhbbWVXLsYW8WIT-109" edge="1">
          <mxGeometry relative="1" as="geometry">
            <mxPoint x="652.5" y="421.5" as="sourcePoint" />
            <mxPoint x="651.5" y="539.5" as="targetPoint" />
          </mxGeometry>
        </mxCell>
        <mxCell id="eBTvOQhbbWVXLsYW8WIT-113" value="1" style="resizable=0;html=1;whiteSpace=wrap;align=left;verticalAlign=bottom;" parent="eBTvOQhbbWVXLsYW8WIT-112" connectable="0" vertex="1">
          <mxGeometry x="-1" relative="1" as="geometry">
            <mxPoint x="10" y="-3" as="offset" />
          </mxGeometry>
        </mxCell>
        <mxCell id="eBTvOQhbbWVXLsYW8WIT-114" value="*" style="resizable=0;html=1;whiteSpace=wrap;align=right;verticalAlign=bottom;" parent="eBTvOQhbbWVXLsYW8WIT-112" connectable="0" vertex="1">
          <mxGeometry x="1" relative="1" as="geometry">
            <mxPoint x="-3" as="offset" />
          </mxGeometry>
        </mxCell>
        <mxCell id="eBTvOQhbbWVXLsYW8WIT-115" value="" style="endArrow=none;html=1;rounded=0;entryX=0.5;entryY=0;entryDx=0;entryDy=0;exitX=0.75;exitY=1;exitDx=0;exitDy=0;" parent="WIyWlLk6GJQsqaUBKTNV-1" source="eBTvOQhbbWVXLsYW8WIT-57" target="eBTvOQhbbWVXLsYW8WIT-109" edge="1">
          <mxGeometry relative="1" as="geometry">
            <mxPoint x="632.5" y="445.5" as="sourcePoint" />
            <mxPoint x="727.5" y="444.5" as="targetPoint" />
          </mxGeometry>
        </mxCell>
        <mxCell id="eBTvOQhbbWVXLsYW8WIT-116" value="1" style="resizable=0;html=1;whiteSpace=wrap;align=left;verticalAlign=bottom;" parent="eBTvOQhbbWVXLsYW8WIT-115" connectable="0" vertex="1">
          <mxGeometry x="-1" relative="1" as="geometry">
            <mxPoint x="-13" y="24" as="offset" />
          </mxGeometry>
        </mxCell>
        <mxCell id="eBTvOQhbbWVXLsYW8WIT-117" value="*" style="resizable=0;html=1;whiteSpace=wrap;align=right;verticalAlign=bottom;" parent="eBTvOQhbbWVXLsYW8WIT-115" connectable="0" vertex="1">
          <mxGeometry x="1" relative="1" as="geometry">
            <mxPoint x="-3" as="offset" />
          </mxGeometry>
        </mxCell>
        <mxCell id="eBTvOQhbbWVXLsYW8WIT-118" value="Menu" style="swimlane;fontStyle=1;align=center;verticalAlign=top;childLayout=stackLayout;horizontal=1;startSize=26;horizontalStack=0;resizeParent=1;resizeParentMax=0;resizeLast=0;collapsible=1;marginBottom=0;whiteSpace=wrap;html=1;" parent="WIyWlLk6GJQsqaUBKTNV-1" vertex="1" collapsed="1">
          <mxGeometry x="500.5" y="628" width="70" height="26" as="geometry">
            <mxRectangle x="30" y="1036" width="160" height="86" as="alternateBounds" />
          </mxGeometry>
        </mxCell>
        <mxCell id="eBTvOQhbbWVXLsYW8WIT-119" value="+ field: type" style="text;strokeColor=none;fillColor=none;align=left;verticalAlign=top;spacingLeft=4;spacingRight=4;overflow=hidden;rotatable=0;points=[[0,0.5],[1,0.5]];portConstraint=eastwest;whiteSpace=wrap;html=1;" parent="eBTvOQhbbWVXLsYW8WIT-118" vertex="1">
          <mxGeometry y="26" width="160" height="26" as="geometry" />
        </mxCell>
        <mxCell id="eBTvOQhbbWVXLsYW8WIT-120" value="" style="line;strokeWidth=1;fillColor=none;align=left;verticalAlign=middle;spacingTop=-1;spacingLeft=3;spacingRight=3;rotatable=0;labelPosition=right;points=[];portConstraint=eastwest;strokeColor=inherit;" parent="eBTvOQhbbWVXLsYW8WIT-118" vertex="1">
          <mxGeometry y="52" width="160" height="8" as="geometry" />
        </mxCell>
        <mxCell id="eBTvOQhbbWVXLsYW8WIT-121" value="+ method(type): type" style="text;strokeColor=none;fillColor=none;align=left;verticalAlign=top;spacingLeft=4;spacingRight=4;overflow=hidden;rotatable=0;points=[[0,0.5],[1,0.5]];portConstraint=eastwest;whiteSpace=wrap;html=1;" parent="eBTvOQhbbWVXLsYW8WIT-118" vertex="1">
          <mxGeometry y="60" width="160" height="26" as="geometry" />
        </mxCell>
        <mxCell id="eBTvOQhbbWVXLsYW8WIT-122" value="Item" style="swimlane;fontStyle=1;align=center;verticalAlign=top;childLayout=stackLayout;horizontal=1;startSize=26;horizontalStack=0;resizeParent=1;resizeParentMax=0;resizeLast=0;collapsible=1;marginBottom=0;whiteSpace=wrap;html=1;" parent="WIyWlLk6GJQsqaUBKTNV-1" vertex="1" collapsed="1">
          <mxGeometry x="499.5" y="760" width="72" height="26" as="geometry">
            <mxRectangle x="-472.5" y="1122" width="160" height="86" as="alternateBounds" />
          </mxGeometry>
        </mxCell>
        <mxCell id="eBTvOQhbbWVXLsYW8WIT-123" value="+ field: type" style="text;strokeColor=none;fillColor=none;align=left;verticalAlign=top;spacingLeft=4;spacingRight=4;overflow=hidden;rotatable=0;points=[[0,0.5],[1,0.5]];portConstraint=eastwest;whiteSpace=wrap;html=1;" parent="eBTvOQhbbWVXLsYW8WIT-122" vertex="1">
          <mxGeometry y="26" width="160" height="26" as="geometry" />
        </mxCell>
        <mxCell id="eBTvOQhbbWVXLsYW8WIT-124" value="" style="line;strokeWidth=1;fillColor=none;align=left;verticalAlign=middle;spacingTop=-1;spacingLeft=3;spacingRight=3;rotatable=0;labelPosition=right;points=[];portConstraint=eastwest;strokeColor=inherit;" parent="eBTvOQhbbWVXLsYW8WIT-122" vertex="1">
          <mxGeometry y="52" width="160" height="8" as="geometry" />
        </mxCell>
        <mxCell id="eBTvOQhbbWVXLsYW8WIT-125" value="+ method(type): type" style="text;strokeColor=none;fillColor=none;align=left;verticalAlign=top;spacingLeft=4;spacingRight=4;overflow=hidden;rotatable=0;points=[[0,0.5],[1,0.5]];portConstraint=eastwest;whiteSpace=wrap;html=1;" parent="eBTvOQhbbWVXLsYW8WIT-122" vertex="1">
          <mxGeometry y="60" width="160" height="26" as="geometry" />
        </mxCell>
        <mxCell id="eBTvOQhbbWVXLsYW8WIT-126" value="" style="endArrow=diamondThin;endFill=0;endSize=24;html=1;rounded=0;exitX=0.5;exitY=0;exitDx=0;exitDy=0;entryX=0.5;entryY=1;entryDx=0;entryDy=0;" parent="WIyWlLk6GJQsqaUBKTNV-1" source="eBTvOQhbbWVXLsYW8WIT-122" target="wCl5vX7TFLa7LNLCwY4E-21" edge="1">
          <mxGeometry width="160" relative="1" as="geometry">
            <mxPoint x="591" y="788" as="sourcePoint" />
            <mxPoint x="536" y="710" as="targetPoint" />
          </mxGeometry>
        </mxCell>
        <mxCell id="eBTvOQhbbWVXLsYW8WIT-127" value="" style="endArrow=none;html=1;rounded=0;entryX=0.5;entryY=0;entryDx=0;entryDy=0;exitX=0.5;exitY=1;exitDx=0;exitDy=0;" parent="WIyWlLk6GJQsqaUBKTNV-1" source="eBTvOQhbbWVXLsYW8WIT-73" target="eBTvOQhbbWVXLsYW8WIT-118" edge="1">
          <mxGeometry relative="1" as="geometry">
            <mxPoint x="632.5" y="606" as="sourcePoint" />
            <mxPoint x="632.5" y="724" as="targetPoint" />
          </mxGeometry>
        </mxCell>
        <mxCell id="eBTvOQhbbWVXLsYW8WIT-128" value="1" style="resizable=0;html=1;whiteSpace=wrap;align=left;verticalAlign=bottom;" parent="eBTvOQhbbWVXLsYW8WIT-127" connectable="0" vertex="1">
          <mxGeometry x="-1" relative="1" as="geometry">
            <mxPoint x="-16" y="18" as="offset" />
          </mxGeometry>
        </mxCell>
        <mxCell id="eBTvOQhbbWVXLsYW8WIT-129" value="*" style="resizable=0;html=1;whiteSpace=wrap;align=right;verticalAlign=bottom;" parent="eBTvOQhbbWVXLsYW8WIT-127" connectable="0" vertex="1">
          <mxGeometry x="1" relative="1" as="geometry">
            <mxPoint x="-3" as="offset" />
          </mxGeometry>
        </mxCell>
        <mxCell id="eBTvOQhbbWVXLsYW8WIT-130" value="Order" style="swimlane;fontStyle=1;align=center;verticalAlign=top;childLayout=stackLayout;horizontal=1;startSize=26;horizontalStack=0;resizeParent=1;resizeParentMax=0;resizeLast=0;collapsible=1;marginBottom=0;whiteSpace=wrap;html=1;" parent="WIyWlLk6GJQsqaUBKTNV-1" vertex="1" collapsed="1">
          <mxGeometry x="502.5" y="830" width="66" height="26" as="geometry">
            <mxRectangle x="-957" y="846" width="160" height="60" as="alternateBounds" />
          </mxGeometry>
        </mxCell>
        <mxCell id="eBTvOQhbbWVXLsYW8WIT-131" value="+ field: type" style="text;strokeColor=none;fillColor=none;align=left;verticalAlign=top;spacingLeft=4;spacingRight=4;overflow=hidden;rotatable=0;points=[[0,0.5],[1,0.5]];portConstraint=eastwest;whiteSpace=wrap;html=1;" parent="eBTvOQhbbWVXLsYW8WIT-130" vertex="1">
          <mxGeometry y="26" width="160" height="26" as="geometry" />
        </mxCell>
        <mxCell id="eBTvOQhbbWVXLsYW8WIT-132" value="" style="line;strokeWidth=1;fillColor=none;align=left;verticalAlign=middle;spacingTop=-1;spacingLeft=3;spacingRight=3;rotatable=0;labelPosition=right;points=[];portConstraint=eastwest;strokeColor=inherit;" parent="eBTvOQhbbWVXLsYW8WIT-130" vertex="1">
          <mxGeometry y="52" width="160" height="8" as="geometry" />
        </mxCell>
        <mxCell id="eBTvOQhbbWVXLsYW8WIT-133" value="" style="endArrow=none;html=1;rounded=0;entryX=1;entryY=0.5;entryDx=0;entryDy=0;exitX=1;exitY=0.5;exitDx=0;exitDy=0;" parent="WIyWlLk6GJQsqaUBKTNV-1" source="eBTvOQhbbWVXLsYW8WIT-57" target="eBTvOQhbbWVXLsYW8WIT-130" edge="1">
          <mxGeometry relative="1" as="geometry">
            <mxPoint x="832" y="310" as="sourcePoint" />
            <mxPoint x="832" y="537" as="targetPoint" />
            <Array as="points">
              <mxPoint x="754" y="297" />
              <mxPoint x="754" y="719" />
            </Array>
          </mxGeometry>
        </mxCell>
        <mxCell id="eBTvOQhbbWVXLsYW8WIT-134" value="1" style="resizable=0;html=1;whiteSpace=wrap;align=left;verticalAlign=bottom;" parent="eBTvOQhbbWVXLsYW8WIT-133" connectable="0" vertex="1">
          <mxGeometry x="-1" relative="1" as="geometry">
            <mxPoint x="3" y="24" as="offset" />
          </mxGeometry>
        </mxCell>
        <mxCell id="eBTvOQhbbWVXLsYW8WIT-135" value="*" style="resizable=0;html=1;whiteSpace=wrap;align=right;verticalAlign=bottom;" parent="eBTvOQhbbWVXLsYW8WIT-133" connectable="0" vertex="1">
          <mxGeometry x="1" relative="1" as="geometry">
            <mxPoint x="14" as="offset" />
          </mxGeometry>
        </mxCell>
        <mxCell id="eBTvOQhbbWVXLsYW8WIT-141" value="Reservation" style="swimlane;fontStyle=1;align=center;verticalAlign=top;childLayout=stackLayout;horizontal=1;startSize=26;horizontalStack=0;resizeParent=1;resizeParentMax=0;resizeLast=0;collapsible=1;marginBottom=0;whiteSpace=wrap;html=1;" parent="WIyWlLk6GJQsqaUBKTNV-1" vertex="1" collapsed="1">
          <mxGeometry x="579" y="960" width="94" height="26" as="geometry">
            <mxRectangle x="-168" y="231" width="160" height="60" as="alternateBounds" />
          </mxGeometry>
        </mxCell>
        <mxCell id="eBTvOQhbbWVXLsYW8WIT-142" value="Name" style="text;strokeColor=none;fillColor=none;align=left;verticalAlign=top;spacingLeft=4;spacingRight=4;overflow=hidden;rotatable=0;points=[[0,0.5],[1,0.5]];portConstraint=eastwest;whiteSpace=wrap;html=1;" parent="eBTvOQhbbWVXLsYW8WIT-141" vertex="1">
          <mxGeometry y="26" width="160" height="26" as="geometry" />
        </mxCell>
        <mxCell id="eBTvOQhbbWVXLsYW8WIT-143" value="" style="line;strokeWidth=1;fillColor=none;align=left;verticalAlign=middle;spacingTop=-1;spacingLeft=3;spacingRight=3;rotatable=0;labelPosition=right;points=[];portConstraint=eastwest;strokeColor=inherit;" parent="eBTvOQhbbWVXLsYW8WIT-141" vertex="1">
          <mxGeometry y="52" width="160" height="8" as="geometry" />
        </mxCell>
        <mxCell id="eBTvOQhbbWVXLsYW8WIT-144" value="" style="endArrow=none;html=1;rounded=0;entryX=1;entryY=0.5;entryDx=0;entryDy=0;exitX=1;exitY=0.5;exitDx=0;exitDy=0;" parent="WIyWlLk6GJQsqaUBKTNV-1" source="eBTvOQhbbWVXLsYW8WIT-57" target="eBTvOQhbbWVXLsYW8WIT-141" edge="1">
          <mxGeometry relative="1" as="geometry">
            <mxPoint x="873" y="300" as="sourcePoint" />
            <mxPoint x="862" y="722" as="targetPoint" />
            <Array as="points">
              <mxPoint x="814" y="297" />
              <mxPoint x="814" y="884" />
            </Array>
          </mxGeometry>
        </mxCell>
        <mxCell id="eBTvOQhbbWVXLsYW8WIT-145" value="1" style="resizable=0;html=1;whiteSpace=wrap;align=left;verticalAlign=bottom;" parent="eBTvOQhbbWVXLsYW8WIT-144" connectable="0" vertex="1">
          <mxGeometry x="-1" relative="1" as="geometry">
            <mxPoint x="3" y="24" as="offset" />
          </mxGeometry>
        </mxCell>
        <mxCell id="eBTvOQhbbWVXLsYW8WIT-146" value="*" style="resizable=0;html=1;whiteSpace=wrap;align=right;verticalAlign=bottom;" parent="eBTvOQhbbWVXLsYW8WIT-144" connectable="0" vertex="1">
          <mxGeometry x="1" relative="1" as="geometry">
            <mxPoint x="14" as="offset" />
          </mxGeometry>
        </mxCell>
        <mxCell id="eBTvOQhbbWVXLsYW8WIT-153" value="Bill" style="swimlane;fontStyle=1;align=center;verticalAlign=top;childLayout=stackLayout;horizontal=1;startSize=26;horizontalStack=0;resizeParent=1;resizeParentMax=0;resizeLast=0;collapsible=1;marginBottom=0;whiteSpace=wrap;html=1;" parent="WIyWlLk6GJQsqaUBKTNV-1" vertex="1" collapsed="1">
          <mxGeometry x="504.5" y="904" width="66" height="26" as="geometry">
            <mxRectangle x="-957" y="846" width="160" height="60" as="alternateBounds" />
          </mxGeometry>
        </mxCell>
        <mxCell id="eBTvOQhbbWVXLsYW8WIT-154" value="+ field: type" style="text;strokeColor=none;fillColor=none;align=left;verticalAlign=top;spacingLeft=4;spacingRight=4;overflow=hidden;rotatable=0;points=[[0,0.5],[1,0.5]];portConstraint=eastwest;whiteSpace=wrap;html=1;" parent="eBTvOQhbbWVXLsYW8WIT-153" vertex="1">
          <mxGeometry y="26" width="160" height="26" as="geometry" />
        </mxCell>
        <mxCell id="eBTvOQhbbWVXLsYW8WIT-155" value="" style="line;strokeWidth=1;fillColor=none;align=left;verticalAlign=middle;spacingTop=-1;spacingLeft=3;spacingRight=3;rotatable=0;labelPosition=right;points=[];portConstraint=eastwest;strokeColor=inherit;" parent="eBTvOQhbbWVXLsYW8WIT-153" vertex="1">
          <mxGeometry y="52" width="160" height="8" as="geometry" />
        </mxCell>
        <mxCell id="eBTvOQhbbWVXLsYW8WIT-156" value="Subscription" style="swimlane;fontStyle=1;align=center;verticalAlign=top;childLayout=stackLayout;horizontal=1;startSize=26;horizontalStack=0;resizeParent=1;resizeParentMax=0;resizeLast=0;collapsible=1;marginBottom=0;whiteSpace=wrap;html=1;" parent="WIyWlLk6GJQsqaUBKTNV-1" vertex="1" collapsed="1">
          <mxGeometry x="582" y="456" width="100" height="26" as="geometry">
            <mxRectangle x="460" y="987" width="160" height="86" as="alternateBounds" />
          </mxGeometry>
        </mxCell>
        <mxCell id="eBTvOQhbbWVXLsYW8WIT-157" value="+ field: type" style="text;strokeColor=none;fillColor=none;align=left;verticalAlign=top;spacingLeft=4;spacingRight=4;overflow=hidden;rotatable=0;points=[[0,0.5],[1,0.5]];portConstraint=eastwest;whiteSpace=wrap;html=1;" parent="eBTvOQhbbWVXLsYW8WIT-156" vertex="1">
          <mxGeometry y="26" width="160" height="26" as="geometry" />
        </mxCell>
        <mxCell id="eBTvOQhbbWVXLsYW8WIT-158" value="" style="line;strokeWidth=1;fillColor=none;align=left;verticalAlign=middle;spacingTop=-1;spacingLeft=3;spacingRight=3;rotatable=0;labelPosition=right;points=[];portConstraint=eastwest;strokeColor=inherit;" parent="eBTvOQhbbWVXLsYW8WIT-156" vertex="1">
          <mxGeometry y="52" width="160" height="8" as="geometry" />
        </mxCell>
        <mxCell id="eBTvOQhbbWVXLsYW8WIT-159" value="+ method(type): type" style="text;strokeColor=none;fillColor=none;align=left;verticalAlign=top;spacingLeft=4;spacingRight=4;overflow=hidden;rotatable=0;points=[[0,0.5],[1,0.5]];portConstraint=eastwest;whiteSpace=wrap;html=1;" parent="eBTvOQhbbWVXLsYW8WIT-156" vertex="1">
          <mxGeometry y="60" width="160" height="26" as="geometry" />
        </mxCell>
        <mxCell id="eBTvOQhbbWVXLsYW8WIT-160" value="" style="endArrow=none;html=1;rounded=0;entryX=0;entryY=1;entryDx=0;entryDy=0;exitX=1;exitY=0;exitDx=0;exitDy=0;" parent="WIyWlLk6GJQsqaUBKTNV-1" source="eBTvOQhbbWVXLsYW8WIT-73" target="eBTvOQhbbWVXLsYW8WIT-156" edge="1">
          <mxGeometry relative="1" as="geometry">
            <mxPoint x="571" y="430" as="sourcePoint" />
            <mxPoint x="571" y="548" as="targetPoint" />
          </mxGeometry>
        </mxCell>
        <mxCell id="eBTvOQhbbWVXLsYW8WIT-161" value="1" style="resizable=0;html=1;whiteSpace=wrap;align=left;verticalAlign=bottom;" parent="eBTvOQhbbWVXLsYW8WIT-160" connectable="0" vertex="1">
          <mxGeometry x="-1" relative="1" as="geometry">
            <mxPoint x="-16" as="offset" />
          </mxGeometry>
        </mxCell>
        <mxCell id="eBTvOQhbbWVXLsYW8WIT-162" value="*" style="resizable=0;html=1;whiteSpace=wrap;align=right;verticalAlign=bottom;" parent="eBTvOQhbbWVXLsYW8WIT-160" connectable="0" vertex="1">
          <mxGeometry x="1" relative="1" as="geometry">
            <mxPoint x="-3" y="18" as="offset" />
          </mxGeometry>
        </mxCell>
        <mxCell id="eBTvOQhbbWVXLsYW8WIT-163" value="" style="endArrow=none;html=1;rounded=0;exitX=0;exitY=1;exitDx=0;exitDy=0;entryX=0.5;entryY=0;entryDx=0;entryDy=0;" parent="WIyWlLk6GJQsqaUBKTNV-1" source="eBTvOQhbbWVXLsYW8WIT-57" target="eBTvOQhbbWVXLsYW8WIT-156" edge="1">
          <mxGeometry relative="1" as="geometry">
            <mxPoint x="682" y="324" as="sourcePoint" />
            <mxPoint x="702" y="434" as="targetPoint" />
          </mxGeometry>
        </mxCell>
        <mxCell id="eBTvOQhbbWVXLsYW8WIT-164" value="1" style="resizable=0;html=1;whiteSpace=wrap;align=left;verticalAlign=bottom;" parent="eBTvOQhbbWVXLsYW8WIT-163" connectable="0" vertex="1">
          <mxGeometry x="-1" relative="1" as="geometry">
            <mxPoint x="-16" y="24" as="offset" />
          </mxGeometry>
        </mxCell>
        <mxCell id="eBTvOQhbbWVXLsYW8WIT-165" value="*" style="resizable=0;html=1;whiteSpace=wrap;align=right;verticalAlign=bottom;" parent="eBTvOQhbbWVXLsYW8WIT-163" connectable="0" vertex="1">
          <mxGeometry x="1" relative="1" as="geometry">
            <mxPoint x="-3" as="offset" />
          </mxGeometry>
        </mxCell>
        <mxCell id="eBTvOQhbbWVXLsYW8WIT-176" value="Todo List" style="swimlane;fontStyle=1;align=center;verticalAlign=top;childLayout=stackLayout;horizontal=1;startSize=26;horizontalStack=0;resizeParent=1;resizeParentMax=0;resizeLast=0;collapsible=1;marginBottom=0;whiteSpace=wrap;html=1;" parent="WIyWlLk6GJQsqaUBKTNV-1" vertex="1" collapsed="1">
          <mxGeometry x="274" y="644" width="83" height="26" as="geometry">
            <mxRectangle x="-608" y="880" width="160" height="86" as="alternateBounds" />
          </mxGeometry>
        </mxCell>
        <mxCell id="eBTvOQhbbWVXLsYW8WIT-177" value="+ field: type" style="text;strokeColor=none;fillColor=none;align=left;verticalAlign=top;spacingLeft=4;spacingRight=4;overflow=hidden;rotatable=0;points=[[0,0.5],[1,0.5]];portConstraint=eastwest;whiteSpace=wrap;html=1;" parent="eBTvOQhbbWVXLsYW8WIT-176" vertex="1">
          <mxGeometry y="26" width="160" height="26" as="geometry" />
        </mxCell>
        <mxCell id="eBTvOQhbbWVXLsYW8WIT-178" value="" style="line;strokeWidth=1;fillColor=none;align=left;verticalAlign=middle;spacingTop=-1;spacingLeft=3;spacingRight=3;rotatable=0;labelPosition=right;points=[];portConstraint=eastwest;strokeColor=inherit;" parent="eBTvOQhbbWVXLsYW8WIT-176" vertex="1">
          <mxGeometry y="52" width="160" height="8" as="geometry" />
        </mxCell>
        <mxCell id="eBTvOQhbbWVXLsYW8WIT-179" value="+ method(type): type" style="text;strokeColor=none;fillColor=none;align=left;verticalAlign=top;spacingLeft=4;spacingRight=4;overflow=hidden;rotatable=0;points=[[0,0.5],[1,0.5]];portConstraint=eastwest;whiteSpace=wrap;html=1;" parent="eBTvOQhbbWVXLsYW8WIT-176" vertex="1">
          <mxGeometry y="60" width="160" height="26" as="geometry" />
        </mxCell>
        <mxCell id="eBTvOQhbbWVXLsYW8WIT-190" value="Table" style="swimlane;fontStyle=1;align=center;verticalAlign=top;childLayout=stackLayout;horizontal=1;startSize=26;horizontalStack=0;resizeParent=1;resizeParentMax=0;resizeLast=0;collapsible=1;marginBottom=0;whiteSpace=wrap;html=1;" parent="WIyWlLk6GJQsqaUBKTNV-1" vertex="1" collapsed="1">
          <mxGeometry x="597.5" y="628" width="70" height="26" as="geometry">
            <mxRectangle x="-168" y="400" width="160" height="60" as="alternateBounds" />
          </mxGeometry>
        </mxCell>
        <mxCell id="eBTvOQhbbWVXLsYW8WIT-191" value="+ field: type" style="text;strokeColor=none;fillColor=none;align=left;verticalAlign=top;spacingLeft=4;spacingRight=4;overflow=hidden;rotatable=0;points=[[0,0.5],[1,0.5]];portConstraint=eastwest;whiteSpace=wrap;html=1;" parent="eBTvOQhbbWVXLsYW8WIT-190" vertex="1">
          <mxGeometry y="26" width="160" height="26" as="geometry" />
        </mxCell>
        <mxCell id="eBTvOQhbbWVXLsYW8WIT-192" value="" style="line;strokeWidth=1;fillColor=none;align=left;verticalAlign=middle;spacingTop=-1;spacingLeft=3;spacingRight=3;rotatable=0;labelPosition=right;points=[];portConstraint=eastwest;strokeColor=inherit;" parent="eBTvOQhbbWVXLsYW8WIT-190" vertex="1">
          <mxGeometry y="52" width="160" height="8" as="geometry" />
        </mxCell>
        <mxCell id="eBTvOQhbbWVXLsYW8WIT-212" value="" style="endArrow=none;html=1;rounded=0;entryX=0.5;entryY=0;entryDx=0;entryDy=0;exitX=1;exitY=1;exitDx=0;exitDy=0;" parent="WIyWlLk6GJQsqaUBKTNV-1" source="eBTvOQhbbWVXLsYW8WIT-73" target="eBTvOQhbbWVXLsYW8WIT-190" edge="1">
          <mxGeometry relative="1" as="geometry">
            <mxPoint x="362.5" y="664" as="sourcePoint" />
            <mxPoint x="362.5" y="732" as="targetPoint" />
          </mxGeometry>
        </mxCell>
        <mxCell id="eBTvOQhbbWVXLsYW8WIT-213" value="1" style="resizable=0;html=1;whiteSpace=wrap;align=left;verticalAlign=bottom;" parent="eBTvOQhbbWVXLsYW8WIT-212" connectable="0" vertex="1">
          <mxGeometry x="-1" relative="1" as="geometry">
            <mxPoint x="9" y="17" as="offset" />
          </mxGeometry>
        </mxCell>
        <mxCell id="eBTvOQhbbWVXLsYW8WIT-214" value="*" style="resizable=0;html=1;whiteSpace=wrap;align=right;verticalAlign=bottom;" parent="eBTvOQhbbWVXLsYW8WIT-212" connectable="0" vertex="1">
          <mxGeometry x="1" relative="1" as="geometry">
            <mxPoint x="10" y="-4" as="offset" />
          </mxGeometry>
        </mxCell>
        <mxCell id="eBTvOQhbbWVXLsYW8WIT-219" value="" style="endArrow=none;html=1;rounded=0;entryX=0.75;entryY=1;entryDx=0;entryDy=0;exitX=0;exitY=0.5;exitDx=0;exitDy=0;" parent="WIyWlLk6GJQsqaUBKTNV-1" source="eBTvOQhbbWVXLsYW8WIT-176" target="eBTvOQhbbWVXLsYW8WIT-79" edge="1">
          <mxGeometry relative="1" as="geometry">
            <mxPoint x="287" y="524.71" as="sourcePoint" />
            <mxPoint x="372" y="591.5" as="targetPoint" />
          </mxGeometry>
        </mxCell>
        <mxCell id="eBTvOQhbbWVXLsYW8WIT-220" value="1" style="resizable=0;html=1;whiteSpace=wrap;align=left;verticalAlign=bottom;" parent="eBTvOQhbbWVXLsYW8WIT-219" connectable="0" vertex="1">
          <mxGeometry x="-1" relative="1" as="geometry">
            <mxPoint x="-15" y="-8" as="offset" />
          </mxGeometry>
        </mxCell>
        <mxCell id="eBTvOQhbbWVXLsYW8WIT-221" value="1" style="resizable=0;html=1;whiteSpace=wrap;align=right;verticalAlign=bottom;" parent="eBTvOQhbbWVXLsYW8WIT-219" connectable="0" vertex="1">
          <mxGeometry x="1" relative="1" as="geometry">
            <mxPoint x="25" y="19" as="offset" />
          </mxGeometry>
        </mxCell>
        <mxCell id="eBTvOQhbbWVXLsYW8WIT-230" value="General Task" style="swimlane;fontStyle=1;align=center;verticalAlign=top;childLayout=stackLayout;horizontal=1;startSize=26;horizontalStack=0;resizeParent=1;resizeParentMax=0;resizeLast=0;collapsible=1;marginBottom=0;whiteSpace=wrap;html=1;" parent="WIyWlLk6GJQsqaUBKTNV-1" vertex="1" collapsed="1">
          <mxGeometry x="263" y="720" width="105" height="26" as="geometry">
            <mxRectangle x="-608" y="1319" width="160" height="86" as="alternateBounds" />
          </mxGeometry>
        </mxCell>
        <mxCell id="eBTvOQhbbWVXLsYW8WIT-231" value="+ field: type" style="text;strokeColor=none;fillColor=none;align=left;verticalAlign=top;spacingLeft=4;spacingRight=4;overflow=hidden;rotatable=0;points=[[0,0.5],[1,0.5]];portConstraint=eastwest;whiteSpace=wrap;html=1;" parent="eBTvOQhbbWVXLsYW8WIT-230" vertex="1">
          <mxGeometry y="26" width="160" height="26" as="geometry" />
        </mxCell>
        <mxCell id="eBTvOQhbbWVXLsYW8WIT-232" value="" style="line;strokeWidth=1;fillColor=none;align=left;verticalAlign=middle;spacingTop=-1;spacingLeft=3;spacingRight=3;rotatable=0;labelPosition=right;points=[];portConstraint=eastwest;strokeColor=inherit;" parent="eBTvOQhbbWVXLsYW8WIT-230" vertex="1">
          <mxGeometry y="52" width="160" height="8" as="geometry" />
        </mxCell>
        <mxCell id="eBTvOQhbbWVXLsYW8WIT-233" value="+ method(type): type" style="text;strokeColor=none;fillColor=none;align=left;verticalAlign=top;spacingLeft=4;spacingRight=4;overflow=hidden;rotatable=0;points=[[0,0.5],[1,0.5]];portConstraint=eastwest;whiteSpace=wrap;html=1;" parent="eBTvOQhbbWVXLsYW8WIT-230" vertex="1">
          <mxGeometry y="60" width="160" height="26" as="geometry" />
        </mxCell>
        <mxCell id="eBTvOQhbbWVXLsYW8WIT-234" value="" style="endArrow=diamondThin;endFill=0;endSize=24;html=1;rounded=0;entryX=0.5;entryY=1;entryDx=0;entryDy=0;" parent="WIyWlLk6GJQsqaUBKTNV-1" source="eBTvOQhbbWVXLsYW8WIT-230" target="eBTvOQhbbWVXLsYW8WIT-176" edge="1">
          <mxGeometry width="160" relative="1" as="geometry">
            <mxPoint x="699" y="810" as="sourcePoint" />
            <mxPoint x="402" y="895" as="targetPoint" />
          </mxGeometry>
        </mxCell>
        <mxCell id="eBTvOQhbbWVXLsYW8WIT-235" value="Timetable" style="swimlane;fontStyle=1;align=center;verticalAlign=top;childLayout=stackLayout;horizontal=1;startSize=26;horizontalStack=0;resizeParent=1;resizeParentMax=0;resizeLast=0;collapsible=1;marginBottom=0;whiteSpace=wrap;html=1;" parent="WIyWlLk6GJQsqaUBKTNV-1" vertex="1" collapsed="1">
          <mxGeometry x="272" y="416" width="87" height="26" as="geometry">
            <mxRectangle x="-332" y="489" width="160" height="86" as="alternateBounds" />
          </mxGeometry>
        </mxCell>
        <mxCell id="eBTvOQhbbWVXLsYW8WIT-236" value="+ field: type" style="text;strokeColor=none;fillColor=none;align=left;verticalAlign=top;spacingLeft=4;spacingRight=4;overflow=hidden;rotatable=0;points=[[0,0.5],[1,0.5]];portConstraint=eastwest;whiteSpace=wrap;html=1;" parent="eBTvOQhbbWVXLsYW8WIT-235" vertex="1">
          <mxGeometry y="26" width="160" height="26" as="geometry" />
        </mxCell>
        <mxCell id="eBTvOQhbbWVXLsYW8WIT-237" value="" style="line;strokeWidth=1;fillColor=none;align=left;verticalAlign=middle;spacingTop=-1;spacingLeft=3;spacingRight=3;rotatable=0;labelPosition=right;points=[];portConstraint=eastwest;strokeColor=inherit;" parent="eBTvOQhbbWVXLsYW8WIT-235" vertex="1">
          <mxGeometry y="52" width="160" height="8" as="geometry" />
        </mxCell>
        <mxCell id="eBTvOQhbbWVXLsYW8WIT-238" value="+ method(type): type" style="text;strokeColor=none;fillColor=none;align=left;verticalAlign=top;spacingLeft=4;spacingRight=4;overflow=hidden;rotatable=0;points=[[0,0.5],[1,0.5]];portConstraint=eastwest;whiteSpace=wrap;html=1;" parent="eBTvOQhbbWVXLsYW8WIT-235" vertex="1">
          <mxGeometry y="60" width="160" height="26" as="geometry" />
        </mxCell>
        <mxCell id="eBTvOQhbbWVXLsYW8WIT-239" value="Storage" style="swimlane;fontStyle=1;align=center;verticalAlign=top;childLayout=stackLayout;horizontal=1;startSize=26;horizontalStack=0;resizeParent=1;resizeParentMax=0;resizeLast=0;collapsible=1;marginBottom=0;whiteSpace=wrap;html=1;" parent="WIyWlLk6GJQsqaUBKTNV-1" vertex="1" collapsed="1">
          <mxGeometry x="277" y="584" width="77" height="26" as="geometry">
            <mxRectangle x="-512" y="403" width="160" height="86" as="alternateBounds" />
          </mxGeometry>
        </mxCell>
        <mxCell id="eBTvOQhbbWVXLsYW8WIT-240" value="+ field: type" style="text;strokeColor=none;fillColor=none;align=left;verticalAlign=top;spacingLeft=4;spacingRight=4;overflow=hidden;rotatable=0;points=[[0,0.5],[1,0.5]];portConstraint=eastwest;whiteSpace=wrap;html=1;" parent="eBTvOQhbbWVXLsYW8WIT-239" vertex="1">
          <mxGeometry y="26" width="160" height="26" as="geometry" />
        </mxCell>
        <mxCell id="eBTvOQhbbWVXLsYW8WIT-241" value="" style="line;strokeWidth=1;fillColor=none;align=left;verticalAlign=middle;spacingTop=-1;spacingLeft=3;spacingRight=3;rotatable=0;labelPosition=right;points=[];portConstraint=eastwest;strokeColor=inherit;" parent="eBTvOQhbbWVXLsYW8WIT-239" vertex="1">
          <mxGeometry y="52" width="160" height="8" as="geometry" />
        </mxCell>
        <mxCell id="eBTvOQhbbWVXLsYW8WIT-242" value="+ method(type): type" style="text;strokeColor=none;fillColor=none;align=left;verticalAlign=top;spacingLeft=4;spacingRight=4;overflow=hidden;rotatable=0;points=[[0,0.5],[1,0.5]];portConstraint=eastwest;whiteSpace=wrap;html=1;" parent="eBTvOQhbbWVXLsYW8WIT-239" vertex="1">
          <mxGeometry y="60" width="160" height="26" as="geometry" />
        </mxCell>
        <mxCell id="eBTvOQhbbWVXLsYW8WIT-244" value="" style="endArrow=none;html=1;rounded=0;entryX=1;entryY=0.5;entryDx=0;entryDy=0;exitX=0;exitY=0;exitDx=0;exitDy=0;" parent="WIyWlLk6GJQsqaUBKTNV-1" source="eBTvOQhbbWVXLsYW8WIT-73" target="eBTvOQhbbWVXLsYW8WIT-235" edge="1">
          <mxGeometry relative="1" as="geometry">
            <mxPoint x="421" y="562" as="sourcePoint" />
            <mxPoint x="369" y="630" as="targetPoint" />
          </mxGeometry>
        </mxCell>
        <mxCell id="eBTvOQhbbWVXLsYW8WIT-245" value="1" style="resizable=0;html=1;whiteSpace=wrap;align=left;verticalAlign=bottom;" parent="eBTvOQhbbWVXLsYW8WIT-244" connectable="0" vertex="1">
          <mxGeometry x="-1" relative="1" as="geometry">
            <mxPoint x="-26" y="15" as="offset" />
          </mxGeometry>
        </mxCell>
        <mxCell id="eBTvOQhbbWVXLsYW8WIT-246" value="1" style="resizable=0;html=1;whiteSpace=wrap;align=right;verticalAlign=bottom;" parent="eBTvOQhbbWVXLsYW8WIT-244" connectable="0" vertex="1">
          <mxGeometry x="1" relative="1" as="geometry">
            <mxPoint x="16" y="5" as="offset" />
          </mxGeometry>
        </mxCell>
        <mxCell id="eBTvOQhbbWVXLsYW8WIT-247" value="" style="endArrow=none;html=1;rounded=0;entryX=1;entryY=0.5;entryDx=0;entryDy=0;exitX=0;exitY=0.75;exitDx=0;exitDy=0;" parent="WIyWlLk6GJQsqaUBKTNV-1" source="eBTvOQhbbWVXLsYW8WIT-73" target="eBTvOQhbbWVXLsYW8WIT-239" edge="1">
          <mxGeometry relative="1" as="geometry">
            <mxPoint x="492.5" y="583.5" as="sourcePoint" />
            <mxPoint x="362.5" y="628.5" as="targetPoint" />
          </mxGeometry>
        </mxCell>
        <mxCell id="eBTvOQhbbWVXLsYW8WIT-248" value="1" style="resizable=0;html=1;whiteSpace=wrap;align=left;verticalAlign=bottom;" parent="eBTvOQhbbWVXLsYW8WIT-247" connectable="0" vertex="1">
          <mxGeometry x="-1" relative="1" as="geometry">
            <mxPoint x="-16" y="24" as="offset" />
          </mxGeometry>
        </mxCell>
        <mxCell id="eBTvOQhbbWVXLsYW8WIT-249" value="1" style="resizable=0;html=1;whiteSpace=wrap;align=right;verticalAlign=bottom;" parent="eBTvOQhbbWVXLsYW8WIT-247" connectable="0" vertex="1">
          <mxGeometry x="1" relative="1" as="geometry">
            <mxPoint x="36" y="10" as="offset" />
          </mxGeometry>
        </mxCell>
        <mxCell id="eBTvOQhbbWVXLsYW8WIT-250" value="" style="endArrow=none;html=1;rounded=0;entryX=1;entryY=0;entryDx=0;entryDy=0;exitX=0;exitY=0.5;exitDx=0;exitDy=0;" parent="WIyWlLk6GJQsqaUBKTNV-1" source="eBTvOQhbbWVXLsYW8WIT-235" target="eBTvOQhbbWVXLsYW8WIT-79" edge="1">
          <mxGeometry relative="1" as="geometry">
            <mxPoint x="322" y="557.5" as="sourcePoint" />
            <mxPoint x="192" y="602.5" as="targetPoint" />
          </mxGeometry>
        </mxCell>
        <mxCell id="eBTvOQhbbWVXLsYW8WIT-251" value="1" style="resizable=0;html=1;whiteSpace=wrap;align=left;verticalAlign=bottom;" parent="eBTvOQhbbWVXLsYW8WIT-250" connectable="0" vertex="1">
          <mxGeometry x="-1" relative="1" as="geometry">
            <mxPoint x="-20" y="5" as="offset" />
          </mxGeometry>
        </mxCell>
        <mxCell id="eBTvOQhbbWVXLsYW8WIT-252" value="1" style="resizable=0;html=1;whiteSpace=wrap;align=right;verticalAlign=bottom;" parent="eBTvOQhbbWVXLsYW8WIT-250" connectable="0" vertex="1">
          <mxGeometry x="1" relative="1" as="geometry">
            <mxPoint x="7" as="offset" />
          </mxGeometry>
        </mxCell>
        <mxCell id="eBTvOQhbbWVXLsYW8WIT-253" value="" style="endArrow=none;html=1;rounded=0;exitX=0;exitY=0.5;exitDx=0;exitDy=0;entryX=1;entryY=0.75;entryDx=0;entryDy=0;" parent="WIyWlLk6GJQsqaUBKTNV-1" source="eBTvOQhbbWVXLsYW8WIT-239" target="eBTvOQhbbWVXLsYW8WIT-79" edge="1">
          <mxGeometry relative="1" as="geometry">
            <mxPoint x="259" y="634" as="sourcePoint" />
            <mxPoint x="162" y="564" as="targetPoint" />
          </mxGeometry>
        </mxCell>
        <mxCell id="eBTvOQhbbWVXLsYW8WIT-259" value="" style="endArrow=diamondThin;endFill=0;endSize=24;html=1;rounded=0;entryX=1;entryY=1;entryDx=0;entryDy=0;exitX=0;exitY=0;exitDx=0;exitDy=0;" parent="WIyWlLk6GJQsqaUBKTNV-1" source="eBTvOQhbbWVXLsYW8WIT-122" target="eBTvOQhbbWVXLsYW8WIT-239" edge="1">
          <mxGeometry width="160" relative="1" as="geometry">
            <mxPoint x="354.5" y="716" as="sourcePoint" />
            <mxPoint x="354.5" y="664" as="targetPoint" />
          </mxGeometry>
        </mxCell>
        <mxCell id="eBTvOQhbbWVXLsYW8WIT-260" value="" style="endArrow=none;html=1;rounded=0;entryX=0;entryY=1;entryDx=0;entryDy=0;exitX=1;exitY=0;exitDx=0;exitDy=0;" parent="WIyWlLk6GJQsqaUBKTNV-1" source="eBTvOQhbbWVXLsYW8WIT-239" target="eBTvOQhbbWVXLsYW8WIT-61" edge="1">
          <mxGeometry width="50" height="50" relative="1" as="geometry">
            <mxPoint x="442" y="484" as="sourcePoint" />
            <mxPoint x="492" y="434" as="targetPoint" />
          </mxGeometry>
        </mxCell>
        <mxCell id="wCl5vX7TFLa7LNLCwY4E-6" value="manage" style="edgeLabel;html=1;align=center;verticalAlign=middle;resizable=0;points=[];" vertex="1" connectable="0" parent="eBTvOQhbbWVXLsYW8WIT-260">
          <mxGeometry x="0.5489" relative="1" as="geometry">
            <mxPoint as="offset" />
          </mxGeometry>
        </mxCell>
        <mxCell id="eBTvOQhbbWVXLsYW8WIT-261" value="" style="endArrow=none;html=1;rounded=0;entryX=0;entryY=0;entryDx=0;entryDy=0;exitX=1;exitY=0;exitDx=0;exitDy=0;" parent="WIyWlLk6GJQsqaUBKTNV-1" source="eBTvOQhbbWVXLsYW8WIT-235" target="eBTvOQhbbWVXLsYW8WIT-61" edge="1">
          <mxGeometry width="50" height="50" relative="1" as="geometry">
            <mxPoint x="276.77" y="493.13" as="sourcePoint" />
            <mxPoint x="413.77" y="328.13" as="targetPoint" />
          </mxGeometry>
        </mxCell>
        <mxCell id="wCl5vX7TFLa7LNLCwY4E-5" value="manage" style="edgeLabel;html=1;align=center;verticalAlign=middle;resizable=0;points=[];" vertex="1" connectable="0" parent="eBTvOQhbbWVXLsYW8WIT-261">
          <mxGeometry x="0.0129" y="2" relative="1" as="geometry">
            <mxPoint as="offset" />
          </mxGeometry>
        </mxCell>
        <mxCell id="eBTvOQhbbWVXLsYW8WIT-262" value="" style="endArrow=none;html=1;rounded=0;entryX=0.5;entryY=0;entryDx=0;entryDy=0;exitX=1;exitY=1;exitDx=0;exitDy=0;" parent="WIyWlLk6GJQsqaUBKTNV-1" source="eBTvOQhbbWVXLsYW8WIT-61" target="eBTvOQhbbWVXLsYW8WIT-156" edge="1">
          <mxGeometry width="50" height="50" relative="1" as="geometry">
            <mxPoint x="522" y="442" as="sourcePoint" />
            <mxPoint x="655" y="376" as="targetPoint" />
          </mxGeometry>
        </mxCell>
        <mxCell id="eBTvOQhbbWVXLsYW8WIT-263" value="manage" style="edgeLabel;html=1;align=center;verticalAlign=middle;resizable=0;points=[];" parent="eBTvOQhbbWVXLsYW8WIT-262" vertex="1" connectable="0">
          <mxGeometry x="0.042" y="-2" relative="1" as="geometry">
            <mxPoint as="offset" />
          </mxGeometry>
        </mxCell>
        <mxCell id="eBTvOQhbbWVXLsYW8WIT-264" value="" style="endArrow=none;html=1;rounded=0;entryX=1;entryY=0.5;entryDx=0;entryDy=0;exitX=1;exitY=0.5;exitDx=0;exitDy=0;" parent="WIyWlLk6GJQsqaUBKTNV-1" source="eBTvOQhbbWVXLsYW8WIT-57" target="eBTvOQhbbWVXLsYW8WIT-153" edge="1">
          <mxGeometry relative="1" as="geometry">
            <mxPoint x="833" y="352" as="sourcePoint" />
            <mxPoint x="822" y="774" as="targetPoint" />
            <Array as="points">
              <mxPoint x="784" y="297" />
              <mxPoint x="784" y="804" />
            </Array>
          </mxGeometry>
        </mxCell>
        <mxCell id="eBTvOQhbbWVXLsYW8WIT-265" value="1" style="resizable=0;html=1;whiteSpace=wrap;align=left;verticalAlign=bottom;" parent="eBTvOQhbbWVXLsYW8WIT-264" connectable="0" vertex="1">
          <mxGeometry x="-1" relative="1" as="geometry">
            <mxPoint x="3" y="24" as="offset" />
          </mxGeometry>
        </mxCell>
        <mxCell id="eBTvOQhbbWVXLsYW8WIT-266" value="*" style="resizable=0;html=1;whiteSpace=wrap;align=right;verticalAlign=bottom;" parent="eBTvOQhbbWVXLsYW8WIT-264" connectable="0" vertex="1">
          <mxGeometry x="1" relative="1" as="geometry">
            <mxPoint x="14" as="offset" />
          </mxGeometry>
        </mxCell>
        <mxCell id="wCl5vX7TFLa7LNLCwY4E-0" value="" style="endArrow=diamondThin;endFill=0;endSize=24;html=1;rounded=0;entryX=0.5;entryY=1;entryDx=0;entryDy=0;exitX=0.5;exitY=0;exitDx=0;exitDy=0;" edge="1" parent="WIyWlLk6GJQsqaUBKTNV-1" source="wCl5vX7TFLa7LNLCwY4E-1" target="eBTvOQhbbWVXLsYW8WIT-235">
          <mxGeometry width="160" relative="1" as="geometry">
            <mxPoint x="316" y="504" as="sourcePoint" />
            <mxPoint x="307" y="464" as="targetPoint" />
          </mxGeometry>
        </mxCell>
        <mxCell id="wCl5vX7TFLa7LNLCwY4E-1" value="Event" style="swimlane;fontStyle=1;align=center;verticalAlign=top;childLayout=stackLayout;horizontal=1;startSize=26;horizontalStack=0;resizeParent=1;resizeParentMax=0;resizeLast=0;collapsible=1;marginBottom=0;whiteSpace=wrap;html=1;" vertex="1" collapsed="1" parent="WIyWlLk6GJQsqaUBKTNV-1">
          <mxGeometry x="272" y="494" width="87" height="26" as="geometry">
            <mxRectangle x="-332" y="489" width="160" height="86" as="alternateBounds" />
          </mxGeometry>
        </mxCell>
        <mxCell id="wCl5vX7TFLa7LNLCwY4E-2" value="+ field: type" style="text;strokeColor=none;fillColor=none;align=left;verticalAlign=top;spacingLeft=4;spacingRight=4;overflow=hidden;rotatable=0;points=[[0,0.5],[1,0.5]];portConstraint=eastwest;whiteSpace=wrap;html=1;" vertex="1" parent="wCl5vX7TFLa7LNLCwY4E-1">
          <mxGeometry y="26" width="160" height="26" as="geometry" />
        </mxCell>
        <mxCell id="wCl5vX7TFLa7LNLCwY4E-3" value="" style="line;strokeWidth=1;fillColor=none;align=left;verticalAlign=middle;spacingTop=-1;spacingLeft=3;spacingRight=3;rotatable=0;labelPosition=right;points=[];portConstraint=eastwest;strokeColor=inherit;" vertex="1" parent="wCl5vX7TFLa7LNLCwY4E-1">
          <mxGeometry y="52" width="160" height="8" as="geometry" />
        </mxCell>
        <mxCell id="wCl5vX7TFLa7LNLCwY4E-4" value="+ method(type): type" style="text;strokeColor=none;fillColor=none;align=left;verticalAlign=top;spacingLeft=4;spacingRight=4;overflow=hidden;rotatable=0;points=[[0,0.5],[1,0.5]];portConstraint=eastwest;whiteSpace=wrap;html=1;" vertex="1" parent="wCl5vX7TFLa7LNLCwY4E-1">
          <mxGeometry y="60" width="160" height="26" as="geometry" />
        </mxCell>
        <mxCell id="wCl5vX7TFLa7LNLCwY4E-8" value="Cashier" style="swimlane;fontStyle=1;align=center;verticalAlign=top;childLayout=stackLayout;horizontal=1;startSize=26;horizontalStack=0;resizeParent=1;resizeParentMax=0;resizeLast=0;collapsible=1;marginBottom=0;whiteSpace=wrap;html=1;" vertex="1" collapsed="1" parent="WIyWlLk6GJQsqaUBKTNV-1">
          <mxGeometry x="180" y="878" width="80" height="26" as="geometry">
            <mxRectangle x="-67" y="1090" width="160" height="86" as="alternateBounds" />
          </mxGeometry>
        </mxCell>
        <mxCell id="wCl5vX7TFLa7LNLCwY4E-9" value="+ field: type" style="text;strokeColor=none;fillColor=none;align=left;verticalAlign=top;spacingLeft=4;spacingRight=4;overflow=hidden;rotatable=0;points=[[0,0.5],[1,0.5]];portConstraint=eastwest;whiteSpace=wrap;html=1;" vertex="1" parent="wCl5vX7TFLa7LNLCwY4E-8">
          <mxGeometry y="26" width="160" height="26" as="geometry" />
        </mxCell>
        <mxCell id="wCl5vX7TFLa7LNLCwY4E-10" value="" style="line;strokeWidth=1;fillColor=none;align=left;verticalAlign=middle;spacingTop=-1;spacingLeft=3;spacingRight=3;rotatable=0;labelPosition=right;points=[];portConstraint=eastwest;strokeColor=inherit;" vertex="1" parent="wCl5vX7TFLa7LNLCwY4E-8">
          <mxGeometry y="52" width="160" height="8" as="geometry" />
        </mxCell>
        <mxCell id="wCl5vX7TFLa7LNLCwY4E-11" value="+ method(type): type" style="text;strokeColor=none;fillColor=none;align=left;verticalAlign=top;spacingLeft=4;spacingRight=4;overflow=hidden;rotatable=0;points=[[0,0.5],[1,0.5]];portConstraint=eastwest;whiteSpace=wrap;html=1;" vertex="1" parent="wCl5vX7TFLa7LNLCwY4E-8">
          <mxGeometry y="60" width="160" height="26" as="geometry" />
        </mxCell>
        <mxCell id="wCl5vX7TFLa7LNLCwY4E-12" value="Waiter" style="swimlane;fontStyle=1;align=center;verticalAlign=top;childLayout=stackLayout;horizontal=1;startSize=26;horizontalStack=0;resizeParent=1;resizeParentMax=0;resizeLast=0;collapsible=1;marginBottom=0;whiteSpace=wrap;html=1;" vertex="1" collapsed="1" parent="WIyWlLk6GJQsqaUBKTNV-1">
          <mxGeometry x="71" y="865" width="70" height="26" as="geometry">
            <mxRectangle x="30" y="1036" width="160" height="86" as="alternateBounds" />
          </mxGeometry>
        </mxCell>
        <mxCell id="wCl5vX7TFLa7LNLCwY4E-13" value="+ field: type" style="text;strokeColor=none;fillColor=none;align=left;verticalAlign=top;spacingLeft=4;spacingRight=4;overflow=hidden;rotatable=0;points=[[0,0.5],[1,0.5]];portConstraint=eastwest;whiteSpace=wrap;html=1;" vertex="1" parent="wCl5vX7TFLa7LNLCwY4E-12">
          <mxGeometry y="26" width="160" height="26" as="geometry" />
        </mxCell>
        <mxCell id="wCl5vX7TFLa7LNLCwY4E-14" value="" style="line;strokeWidth=1;fillColor=none;align=left;verticalAlign=middle;spacingTop=-1;spacingLeft=3;spacingRight=3;rotatable=0;labelPosition=right;points=[];portConstraint=eastwest;strokeColor=inherit;" vertex="1" parent="wCl5vX7TFLa7LNLCwY4E-12">
          <mxGeometry y="52" width="160" height="8" as="geometry" />
        </mxCell>
        <mxCell id="wCl5vX7TFLa7LNLCwY4E-15" value="+ method(type): type" style="text;strokeColor=none;fillColor=none;align=left;verticalAlign=top;spacingLeft=4;spacingRight=4;overflow=hidden;rotatable=0;points=[[0,0.5],[1,0.5]];portConstraint=eastwest;whiteSpace=wrap;html=1;" vertex="1" parent="wCl5vX7TFLa7LNLCwY4E-12">
          <mxGeometry y="60" width="160" height="26" as="geometry" />
        </mxCell>
        <mxCell id="wCl5vX7TFLa7LNLCwY4E-16" value="" style="endArrow=none;html=1;rounded=0;entryX=1;entryY=0.5;entryDx=0;entryDy=0;exitX=0;exitY=0.5;exitDx=0;exitDy=0;" edge="1" parent="WIyWlLk6GJQsqaUBKTNV-1" source="eBTvOQhbbWVXLsYW8WIT-141" target="wCl5vX7TFLa7LNLCwY4E-8">
          <mxGeometry relative="1" as="geometry">
            <mxPoint x="479" y="1000" as="sourcePoint" />
            <mxPoint x="278" y="904" as="targetPoint" />
          </mxGeometry>
        </mxCell>
        <mxCell id="wCl5vX7TFLa7LNLCwY4E-17" value="" style="endArrow=diamondThin;endFill=0;endSize=24;html=1;rounded=0;entryX=0.5;entryY=0;entryDx=0;entryDy=0;movable=1;resizable=1;rotatable=1;deletable=1;editable=1;locked=0;connectable=1;exitX=0.5;exitY=1;exitDx=0;exitDy=0;" edge="1" parent="WIyWlLk6GJQsqaUBKTNV-1" source="eBTvOQhbbWVXLsYW8WIT-122" target="eBTvOQhbbWVXLsYW8WIT-130">
          <mxGeometry width="160" relative="1" as="geometry">
            <mxPoint x="536" y="780" as="sourcePoint" />
            <mxPoint x="659.5" y="770" as="targetPoint" />
          </mxGeometry>
        </mxCell>
        <mxCell id="wCl5vX7TFLa7LNLCwY4E-18" value="" style="endArrow=diamondThin;endFill=0;endSize=24;html=1;rounded=0;entryX=1;entryY=0.5;entryDx=0;entryDy=0;exitX=0;exitY=0.5;exitDx=0;exitDy=0;movable=1;resizable=1;rotatable=1;deletable=1;editable=1;locked=0;connectable=1;" edge="1" parent="WIyWlLk6GJQsqaUBKTNV-1" source="eBTvOQhbbWVXLsYW8WIT-130" target="eBTvOQhbbWVXLsYW8WIT-176">
          <mxGeometry width="160" relative="1" as="geometry">
            <mxPoint x="421" y="732" as="sourcePoint" />
            <mxPoint x="422" y="754" as="targetPoint" />
          </mxGeometry>
        </mxCell>
        <mxCell id="wCl5vX7TFLa7LNLCwY4E-20" value="" style="endArrow=none;html=1;rounded=0;exitX=0;exitY=0.5;exitDx=0;exitDy=0;entryX=0.75;entryY=1;entryDx=0;entryDy=0;" edge="1" parent="WIyWlLk6GJQsqaUBKTNV-1" source="eBTvOQhbbWVXLsYW8WIT-153" target="eBTvOQhbbWVXLsYW8WIT-79">
          <mxGeometry relative="1" as="geometry">
            <mxPoint x="429" y="964" as="sourcePoint" />
            <mxPoint x="84" y="633" as="targetPoint" />
            <Array as="points">
              <mxPoint x="274" y="784" />
            </Array>
          </mxGeometry>
        </mxCell>
        <mxCell id="wCl5vX7TFLa7LNLCwY4E-21" value="Menu Item" style="swimlane;fontStyle=1;align=center;verticalAlign=top;childLayout=stackLayout;horizontal=1;startSize=26;horizontalStack=0;resizeParent=1;resizeParentMax=0;resizeLast=0;collapsible=1;marginBottom=0;whiteSpace=wrap;html=1;" vertex="1" collapsed="1" parent="WIyWlLk6GJQsqaUBKTNV-1">
          <mxGeometry x="501.5" y="690" width="70" height="26" as="geometry">
            <mxRectangle x="30" y="1036" width="160" height="86" as="alternateBounds" />
          </mxGeometry>
        </mxCell>
        <mxCell id="wCl5vX7TFLa7LNLCwY4E-22" value="+ field: type" style="text;strokeColor=none;fillColor=none;align=left;verticalAlign=top;spacingLeft=4;spacingRight=4;overflow=hidden;rotatable=0;points=[[0,0.5],[1,0.5]];portConstraint=eastwest;whiteSpace=wrap;html=1;" vertex="1" parent="wCl5vX7TFLa7LNLCwY4E-21">
          <mxGeometry y="26" width="160" height="26" as="geometry" />
        </mxCell>
        <mxCell id="wCl5vX7TFLa7LNLCwY4E-23" value="" style="line;strokeWidth=1;fillColor=none;align=left;verticalAlign=middle;spacingTop=-1;spacingLeft=3;spacingRight=3;rotatable=0;labelPosition=right;points=[];portConstraint=eastwest;strokeColor=inherit;" vertex="1" parent="wCl5vX7TFLa7LNLCwY4E-21">
          <mxGeometry y="52" width="160" height="8" as="geometry" />
        </mxCell>
        <mxCell id="wCl5vX7TFLa7LNLCwY4E-24" value="+ method(type): type" style="text;strokeColor=none;fillColor=none;align=left;verticalAlign=top;spacingLeft=4;spacingRight=4;overflow=hidden;rotatable=0;points=[[0,0.5],[1,0.5]];portConstraint=eastwest;whiteSpace=wrap;html=1;" vertex="1" parent="wCl5vX7TFLa7LNLCwY4E-21">
          <mxGeometry y="60" width="160" height="26" as="geometry" />
        </mxCell>
        <mxCell id="wCl5vX7TFLa7LNLCwY4E-25" value="" style="endArrow=diamondThin;endFill=0;endSize=24;html=1;rounded=0;entryX=0.5;entryY=1;entryDx=0;entryDy=0;" edge="1" parent="WIyWlLk6GJQsqaUBKTNV-1" source="wCl5vX7TFLa7LNLCwY4E-21" target="eBTvOQhbbWVXLsYW8WIT-118">
          <mxGeometry width="160" relative="1" as="geometry">
            <mxPoint x="598" y="758" as="sourcePoint" />
            <mxPoint x="598" y="708" as="targetPoint" />
          </mxGeometry>
        </mxCell>
        <mxCell id="wCl5vX7TFLa7LNLCwY4E-26" value="" style="endArrow=none;html=1;rounded=0;entryX=0.75;entryY=1;entryDx=0;entryDy=0;exitX=0.5;exitY=0;exitDx=0;exitDy=0;" edge="1" parent="WIyWlLk6GJQsqaUBKTNV-1" source="eBTvOQhbbWVXLsYW8WIT-141" target="eBTvOQhbbWVXLsYW8WIT-73">
          <mxGeometry relative="1" as="geometry">
            <mxPoint x="549" y="1002" as="sourcePoint" />
            <mxPoint x="230" y="920" as="targetPoint" />
            <Array as="points">
              <mxPoint x="590" y="690" />
            </Array>
          </mxGeometry>
        </mxCell>
      </root>
    </mxGraphModel>
  </diagram>
</mxfile>
